<svg width="120" height="120" viewBox="0 0 120 120" fill="none" xmlns="http://www.w3.org/2000/svg">
<path d="M53.805 0H78.7791V89.8863C65.9869 91.7864 56.5697 92.534 46.3805 92.534C15.878 92.509 0 81.808 0 61.256C0 41.4541 16.8422 28.6027 42.9413 28.6027C46.9913 28.6027 50.0766 28.853 53.805 29.6028V0ZM54.6802 45.8014C51.7552 45.0512 49.3448 44.8012 46.2591 44.8012C33.6277 44.8012 26.3316 50.8517 26.3316 61.4551C26.3316 71.7788 33.3066 77.4791 46.0988 77.4791C48.8625 77.4791 51.1125 77.3569 54.6802 76.9818V45.8014V45.8014Z" fill="#2BA977"/>
<path d="M119.619 31.016V76.0208C119.619 91.5195 118.14 98.9728 113.801 105.399C109.751 111.576 104.416 115.472 93.3914 119.775L70.2173 111.199C81.2419 107.176 86.5772 103.621 89.9845 98.1954C93.5517 92.6474 94.6767 86.2215 94.6767 69.3199V31.0164H119.619V31.016Z" fill="#2BA977"/>
<path d="M92.16 0H117.134V19.927H92.16V0Z" fill="#2BA977"/>
</svg>
