<svg width="120" height="120" viewBox="0 0 120 120" fill="none" xmlns="http://www.w3.org/2000/svg">
<path d="M59.4051 15.5294C35.9767 15.5294 37.4396 25.4974 37.4396 25.4974L37.4656 35.8245H59.8229V38.925H28.5856C28.5856 38.925 13.5938 37.2569 13.5938 60.4493C13.5938 83.6425 26.679 82.8199 26.679 82.8199H34.4882V72.0574C34.4882 72.0574 34.0672 59.2194 47.3646 59.2194H69.5391C69.5391 59.2194 81.9973 59.4169 81.9973 47.4064V27.5477C81.9973 27.5477 83.8895 15.5294 59.4051 15.5294ZM47.0773 22.4742C47.6056 22.4737 48.1289 22.5755 48.6171 22.7736C49.1052 22.9718 49.5488 23.2624 49.9224 23.6289C50.296 23.9955 50.5922 24.4307 50.7942 24.9096C50.9961 25.3886 51.0999 25.9019 51.0994 26.4203C51.0999 26.9386 50.9961 27.452 50.7942 27.9309C50.5922 28.4099 50.296 28.8451 49.9224 29.2116C49.5488 29.5781 49.1052 29.8688 48.6171 30.0669C48.1289 30.2651 47.6056 30.3668 47.0773 30.3663C46.549 30.3668 46.0258 30.2651 45.5376 30.0669C45.0494 29.8688 44.6058 29.5781 44.2322 29.2116C43.8587 28.8451 43.5624 28.4099 43.3605 27.9309C43.1585 27.452 43.0548 26.9386 43.0553 26.4203C43.0548 25.9019 43.1585 25.3886 43.3605 24.9096C43.5624 24.4307 43.8587 23.9955 44.2322 23.6289C44.6058 23.2624 45.0494 22.9718 45.5376 22.7736C46.0258 22.5755 46.549 22.4737 47.0773 22.4742V22.4742Z" fill="url(#paint0_linear)"/>
<path d="M60.1265 105.412C83.5549 105.412 82.0921 95.4438 82.0921 95.4438L82.066 85.117H59.7084V82.0166H90.9457C90.9457 82.0166 105.937 83.6847 105.937 60.4915C105.937 37.2987 92.8522 38.1213 92.8522 38.1213H85.043V48.8834C85.043 48.8834 85.464 61.7214 72.1666 61.7214H49.9922C49.9922 61.7214 37.5339 61.524 37.5339 73.5348V93.3938C37.5339 93.3938 35.6421 105.412 60.1261 105.412H60.1265ZM72.4543 98.4677C71.926 98.4682 71.4027 98.3664 70.9145 98.1683C70.4264 97.9701 69.9828 97.6795 69.6092 97.313C69.2356 96.9465 68.9394 96.5113 68.7374 96.0323C68.5355 95.5533 68.4317 95.04 68.4322 94.5216C68.4317 94.0033 68.5354 93.4899 68.7373 93.0109C68.9392 92.5319 69.2355 92.0966 69.6091 91.7301C69.9827 91.3635 70.4262 91.0728 70.9145 90.8747C71.4027 90.6765 71.9259 90.5748 72.4543 90.5752C72.9826 90.5748 73.5058 90.6765 73.994 90.8746C74.4822 91.0728 74.9258 91.3634 75.2994 91.73C75.6729 92.0965 75.9692 92.5317 76.1712 93.0106C76.3731 93.4896 76.4768 94.0029 76.4763 94.5213C76.4768 95.0396 76.3731 95.553 76.1712 96.0319C75.9692 96.5109 75.6729 96.9461 75.2994 97.3126C74.9258 97.6791 74.4822 97.9698 73.994 98.1679C73.5058 98.3661 72.9826 98.4678 72.4543 98.4674V98.4677Z" fill="url(#paint1_linear)"/>
<defs>
<linearGradient id="paint0_linear" x1="22.4626" y1="23.631" x2="67.3338" y2="68.9101" gradientUnits="userSpaceOnUse">
<stop stop-color="#387EB8"/>
<stop offset="1" stop-color="#366994"/>
</linearGradient>
<linearGradient id="paint1_linear" x1="50.5907" y1="51.9661" x2="98.8197" y2="98.4366" gradientUnits="userSpaceOnUse">
<stop stop-color="#FFE052"/>
<stop offset="1" stop-color="#FFC331"/>
</linearGradient>
</defs>
</svg>
