<svg width="120" height="120" viewBox="0 0 120 120" fill="none" xmlns="http://www.w3.org/2000/svg">
<path d="M119.791 23.5233L108.897 110.07L59.9269 119.697L11.0916 110.083L0.208588 23.5233H119.791Z" fill="#E44D26"/>
<path d="M60 112.338L99.5705 104.559L108.88 30.6007H60V112.338Z" fill="#F16529"/>
<path d="M38.8219 51.8333H60V41.2172H22.4611L22.8192 44.0653L26.4989 73.3206H60V62.7045H40.1902L38.8219 51.8333V51.8333Z" fill="#EBEBEB"/>
<path d="M42.1959 78.6289H27.1678L29.265 95.2979L59.9311 101.334L60 101.321V90.2759L59.9344 90.2882L43.2619 87.0957L42.1959 78.6289V78.6289Z" fill="#EBEBEB"/>
<path d="M11.3344 0H18.9422V5.33019H25.9017V0H33.51V16.1412H25.9022V10.7362H18.9427V16.1412H11.3348V0H11.3344Z" fill="white"/>
<path d="M43.5141 5.3528H36.8175V0H57.8241V5.3528H51.1233V16.1412H43.5155V5.3528H43.515H43.5141Z" fill="white"/>
<path d="M61.1578 0H69.0905L73.9702 5.67158L78.8452 0H86.7811V16.1412H79.2042V8.14072L73.9702 13.8798H73.8389L68.6016 8.14072V16.1412H61.1578V0Z" fill="white"/>
<path d="M90.5672 0H98.1774V10.806H108.876V16.1412H90.5667V0H90.5672Z" fill="white"/>
<path d="M59.9484 73.3206H78.383L76.6448 87.0891L59.948 90.2849V101.33L90.6384 95.2979L90.8634 93.5042L94.3819 65.5552L94.747 62.7045H59.9484V73.3206Z" fill="white"/>
<path d="M59.9484 51.8074V51.8333H96.1092L96.4092 49.4473L97.0917 44.0653L97.4494 41.2172H59.9484V51.8077V51.8074Z" fill="white"/>
</svg>
