<svg width="120" height="120" viewBox="0 0 120 120" fill="none" xmlns="http://www.w3.org/2000/svg">
<path d="M59.9269 119.697L11.0916 110.083L0.208588 23.5233H119.791L108.897 110.07L59.9269 119.697V119.697Z" fill="#264DE4"/>
<path d="M99.5705 104.559L108.88 30.6007H60V112.338L99.5705 104.559V104.559Z" fill="#2965F1"/>
<path d="M25.1573 62.7045L26.4989 73.3206H60V62.7045H25.1573Z" fill="#EBEBEB"/>
<path d="M22.4611 41.2172L23.8219 51.8333H60V41.2172H22.4611V41.2172Z" fill="#EBEBEB"/>
<path d="M60 90.2759L59.9344 90.2882L43.2619 87.0957L42.1959 78.6289H27.1678L29.265 95.2979L59.9311 101.334L60 101.321V90.2759Z" fill="#EBEBEB"/>
<path d="M28.3519 0H46.4831V5.37706H35.9344V10.7541H46.4841V16.1309H28.3519V0Z" fill="white"/>
<path d="M50.1098 0H68.2416V4.67568H57.6923V5.61075H68.2416V16.3649H50.1103V11.4548H60.6595V10.5198H50.1094V0H50.1098Z" fill="white"/>
<path d="M71.8683 0H90V4.67568H79.4508V5.61075H90V16.3649H71.8683V11.4548H82.4175V10.5198H71.8688V0H71.8683Z" fill="white"/>
<path d="M94.747 62.7045L97.4494 41.2172H59.9484V51.8333H81.0431L79.6809 62.7045H59.9484V73.3207H78.383L76.6448 87.0891L59.948 90.2849V101.33L90.6384 95.2979L90.8634 93.5043L94.3819 65.5552L94.747 62.7045V62.7045Z" fill="white"/>
</svg>
