<svg width="120" height="120" viewBox="0 0 120 120" fill="none" xmlns="http://www.w3.org/2000/svg">
<path d="M119.535 71.8573C118.815 69.7441 116.931 68.2722 114.493 67.9191C113.344 67.7527 112.028 67.8236 110.47 68.135C107.755 68.6782 105.741 68.885 104.271 68.925C109.819 59.8409 114.331 49.4818 116.928 39.7304C121.128 23.9627 118.884 16.7795 116.261 13.5304C109.32 4.93044 99.1941 0.310436 86.9775 0.169072C80.4605 0.0917993 74.7394 1.33953 71.7549 2.2368C68.9761 1.76134 65.9883 1.49589 62.8533 1.4468C56.9766 1.35589 51.7842 2.59816 47.3475 5.15134C44.8913 4.34589 40.9491 3.21044 36.3966 2.48589C25.6894 0.781345 17.0597 2.10953 10.7475 6.43362C3.10407 11.6691 -0.439212 20.7654 0.216101 33.47C0.424226 37.5036 2.7511 49.7763 6.41485 61.4154C8.52048 68.1054 10.7658 73.6609 13.0884 77.9291C16.3824 83.9813 19.9069 87.5454 23.8636 88.8254C26.0813 89.5418 30.1106 90.0436 34.3486 86.6209C34.8858 87.2518 35.6025 87.8786 36.5536 88.4609C37.7616 89.1995 39.2386 89.8032 40.7138 90.1609C46.0299 91.4495 51.0094 91.1272 55.2577 89.3209C55.2839 90.0536 55.3041 90.7536 55.3209 91.3582C55.3491 92.3386 55.3772 93.3 55.4142 94.1991C55.666 100.278 56.0925 105.005 57.3563 108.312C57.4256 108.494 57.5189 108.771 57.6174 109.065C58.2478 110.937 59.302 114.071 61.9842 116.525C64.7616 119.067 68.1211 119.847 71.198 119.847C72.7411 119.847 74.2134 119.65 75.5049 119.382C80.108 118.425 85.3359 116.968 89.1178 111.746C92.6934 106.81 94.4316 99.375 94.7461 87.66C94.7869 87.3286 94.8244 87.0123 94.8605 86.7109L94.9355 86.0918L95.7778 86.1636L95.9949 86.1777C100.683 86.385 106.416 85.4209 109.937 83.835C112.719 82.5832 121.634 78.0191 119.535 71.8573" fill="black"/>
<path d="M111.518 73.0555C97.5778 75.8441 96.6192 71.2673 96.6192 71.2673C111.338 50.0887 117.491 23.2055 112.182 16.6259C97.6955 -1.3218 72.6197 7.16639 72.2011 7.38639L72.0666 7.41002C69.3122 6.85548 66.2302 6.52548 62.7656 6.47048C56.4581 6.37048 51.6731 8.07411 48.0422 10.7441C48.0422 10.7441 3.30939 -7.12589 5.39017 33.2187C5.83267 41.8014 18.0764 98.1609 32.6799 81.1378C38.0175 74.9128 43.1752 69.6496 43.1752 69.6496C45.7364 71.2996 48.803 72.1414 52.0177 71.8391L52.2675 71.6337C52.1897 72.4064 52.2253 73.1623 52.3674 74.0573C48.6052 78.1332 49.7109 78.8487 42.1903 80.35C34.5802 81.8709 39.0506 84.5782 41.9695 85.2864C45.5081 86.1441 53.6944 87.3596 59.2256 79.8509L59.0053 80.7078C60.4791 81.8528 61.5141 88.1546 61.3406 93.8678C61.1672 99.5805 61.0514 103.503 62.2125 106.566C63.3745 109.63 64.5319 116.523 74.4188 114.469C82.6795 112.752 86.9606 108.304 87.5564 100.883C87.9788 95.6073 88.9355 96.3873 88.9955 91.6705L89.7628 89.4378C90.6474 82.2864 89.9034 79.9791 94.9927 81.0523L96.2302 81.1578C99.9755 81.3228 104.879 80.5732 107.756 79.2764C113.952 76.4882 117.627 71.8323 111.518 73.0555H111.518" fill="#336791"/>
<path d="M50.6606 37.0568C49.4044 36.8872 48.2667 37.0441 47.6911 37.4668C47.3677 37.7045 47.2674 37.98 47.2402 38.1695C47.168 38.6718 47.5308 39.2272 47.7539 39.5136C48.3849 40.3245 49.3064 40.8818 50.2186 41.0045C50.3508 41.0227 50.4825 41.0309 50.6133 41.0309C52.1344 41.0309 53.5177 39.8822 53.6395 39.0345C53.7919 37.9727 52.2024 37.265 50.6606 37.0572" fill="white"/>
<path d="M92.2781 37.0905C92.1581 36.2582 90.6309 36.021 89.1815 36.2164C87.734 36.4119 86.3306 37.0455 86.4478 37.8796C86.5415 38.5282 87.7495 39.6355 89.1792 39.6355C89.3001 39.6355 89.422 39.6278 89.5448 39.611C90.4992 39.4828 91.1995 38.8951 91.5323 38.5564C92.0386 38.0401 92.332 37.4646 92.2781 37.0905" fill="white"/>
<path d="M116.157 72.7387C115.626 71.1801 113.915 70.6787 111.072 71.2478C102.632 72.9369 99.6098 71.7669 98.6175 71.0582C105.178 61.3673 110.574 49.6528 113.486 38.7232C114.865 33.546 115.627 28.7378 115.689 24.8187C115.758 20.5173 115.002 17.3564 113.444 15.4255C107.162 7.64143 97.9415 3.46597 86.7806 3.35143C79.1076 3.26779 72.6248 5.17188 71.3681 5.70734C68.7215 5.06915 65.8364 4.67734 62.6953 4.62734C56.9353 4.53688 51.9562 5.87415 47.834 8.60006C46.0434 7.9537 41.4159 6.41324 35.7567 5.52915C25.9729 4.00188 18.1983 5.15915 12.6501 8.97052C6.02997 13.5187 2.97372 21.6487 3.56575 33.1341C3.76497 36.9982 6.0356 48.8855 9.61872 60.2696C14.3353 75.2532 19.4625 83.7355 24.8568 85.4805C25.4883 85.6846 26.2162 85.8273 27.0192 85.8273C28.987 85.8273 31.3997 84.9673 33.9098 82.041C36.9715 78.4794 40.1386 75.0043 43.4072 71.6201C45.5278 72.7237 47.8575 73.3401 50.2401 73.4019C50.2448 73.4623 50.2509 73.5228 50.2565 73.5828C49.8464 74.0571 49.4448 74.5382 49.0518 75.026C47.4009 77.0582 47.0573 77.4814 41.7431 78.5423C40.2314 78.8451 36.2165 79.6473 36.1575 82.3764C36.0937 85.3582 40.9036 86.6105 41.4515 86.7432C43.3612 87.2069 45.2011 87.4355 46.9556 87.4355C51.2226 87.4355 54.9778 86.0755 57.9787 83.4441C57.8864 94.0741 58.3434 104.549 59.6597 107.74C60.7378 110.353 63.3712 116.738 71.6897 116.737C72.9103 116.737 74.2537 116.6 75.7317 116.292C84.4134 114.488 88.1836 110.767 89.6418 102.564C90.4223 98.1796 91.7615 87.711 92.3915 82.0955C93.7209 82.4978 95.4323 82.6819 97.2825 82.6814C101.141 82.6814 105.594 81.8864 108.386 80.6296C111.523 79.2169 117.184 75.7505 116.157 72.7387V72.7387ZM95.4825 34.7932C95.4539 36.451 95.2186 37.956 94.9692 39.5269C94.7006 41.2164 94.4231 42.9632 94.3532 45.0837C94.2843 47.1473 94.5501 49.2928 94.807 51.3678C95.3264 55.5587 95.8593 59.8732 93.7964 64.1305C93.4537 63.5417 93.1484 62.9332 92.8823 62.3082C92.6259 61.7055 92.069 60.7373 91.2979 59.3973C88.2984 54.181 81.2742 41.9655 84.87 36.981C85.9411 35.4973 88.6593 33.9719 95.4825 34.7932V34.7932ZM87.2118 6.70824C97.2122 6.92234 105.123 10.5501 110.723 17.4901C115.019 22.8132 110.289 47.0346 96.5953 67.9305C96.4576 67.7607 96.3191 67.5915 96.18 67.4228L96.0065 67.2128C99.5451 61.546 98.8532 55.9391 98.2373 50.9682C97.9842 48.9282 97.7451 47.0014 97.8061 45.1914C97.8689 43.2732 98.1304 41.6278 98.3836 40.0369C98.6943 38.0764 99.0107 36.0478 98.9236 33.6564C98.9887 33.4055 99.015 33.1092 98.9807 32.7573C98.7581 30.4642 96.0581 23.601 90.555 17.3892C87.5447 13.9914 83.1548 10.1892 77.1609 7.62461C79.739 7.10643 83.2645 6.62324 87.2118 6.70824V6.70824ZM31.2534 79.8991C28.4878 83.1237 26.5781 82.5055 25.95 82.3028C21.8578 80.9791 17.1093 72.5919 12.9229 59.2919C9.30044 47.7837 7.18356 36.2114 7.01575 32.9664C6.487 22.7037 9.05247 15.5514 14.6414 11.7078C23.737 5.45324 38.6911 9.19688 44.7 11.0955C44.6137 11.1782 44.5237 11.2555 44.4384 11.3396C34.5778 20.996 34.8117 37.4942 34.8361 38.5028C34.8351 38.8919 34.8689 39.4428 34.9148 40.2005C35.0845 42.9755 35.4004 48.1401 34.5567 53.9887C33.7729 59.4237 35.5008 64.7432 39.2962 68.5837C39.6857 68.9771 40.0952 69.3515 40.5229 69.7055C38.8336 71.4601 35.1618 75.3401 31.2534 79.8991V79.8991ZM41.7904 66.266C38.7314 63.1705 37.342 58.8651 37.9781 54.4523C38.8687 48.2741 38.5401 42.8932 38.3634 40.0023C38.3386 39.5978 38.3165 39.2432 38.3039 38.9637C39.7443 37.7251 46.4198 34.2569 51.1804 35.3146C53.3526 35.7969 54.6764 37.2314 55.2267 39.6987C58.0748 52.4728 55.6036 57.7969 53.6179 62.0755C53.2087 62.9569 52.822 63.7901 52.492 64.6519L52.2361 65.3182C51.5882 67.0028 50.9854 68.5691 50.6118 70.0564C47.3597 70.0473 44.1961 68.7001 41.7904 66.2655V66.266ZM42.2897 83.4932C41.34 83.2632 40.4859 82.8637 39.9848 82.5323C40.4034 82.3414 41.1483 82.0814 42.4401 81.8232C48.6918 80.5755 49.6575 79.6946 51.7659 77.0987C52.2492 76.5032 52.7972 75.8287 53.5561 75.0069L53.557 75.006C54.6872 73.7787 55.2042 73.9869 56.1417 74.3641C56.9015 74.6687 57.6417 75.5923 57.9417 76.6087C58.0837 77.0887 58.2431 77.9996 57.7214 78.7087C53.317 84.6887 46.8989 84.6119 42.2897 83.4932V83.4932ZM75.0079 113.017C67.3598 114.606 64.6518 110.822 62.8673 106.496C61.7156 103.703 61.1493 91.1096 61.5511 77.2019C61.5562 77.0169 61.529 76.8382 61.4765 76.6701C61.4296 76.338 61.3581 76.0095 61.2628 75.6873C60.6656 73.6637 59.2101 71.971 57.464 71.2692C56.7703 70.9905 55.4972 70.4792 53.9672 70.8587C54.2934 69.5551 54.8592 68.0828 55.4728 66.4887L55.7301 65.8182C56.0198 65.0623 56.3836 64.2791 56.7679 63.4501C58.8459 58.9737 61.6917 52.8423 58.6031 38.991C57.4462 33.8028 53.5828 31.2692 47.7262 31.8578C44.2153 32.2101 41.0029 33.5837 39.4008 34.3714C39.0562 34.5405 38.7412 34.7041 38.4468 34.8632C38.894 29.636 40.5834 19.8669 46.9031 13.686C50.8823 9.79506 56.1815 7.87324 62.6381 7.97688C75.36 8.1787 83.5181 14.5096 88.1222 19.7855C92.0897 24.3314 94.2379 28.911 95.0953 31.381C88.6476 30.7451 84.2625 31.9792 82.0397 35.061C77.2036 41.7646 84.6853 54.7755 88.2811 61.0287C88.9406 62.1746 89.5097 63.1651 89.6887 63.586C90.8597 66.3378 92.3756 68.1751 93.4823 69.516C93.8217 69.9269 94.1508 70.3255 94.4011 70.6737C92.4483 71.2196 88.9406 72.481 89.2603 78.786C89.0025 81.9496 87.1692 96.7614 86.2378 101.995C85.0082 108.908 82.3847 111.483 75.0079 113.017V113.017ZM106.932 77.5914C104.935 78.4901 101.593 79.1641 98.4187 79.3091C94.9125 79.4682 93.1275 78.9282 92.7075 78.596C92.5106 74.6669 94.0186 74.2564 95.6147 73.8219C95.8654 73.7537 96.1101 73.6869 96.3464 73.6069C96.4931 73.7228 96.6539 73.8378 96.8301 73.9505C99.6482 75.7541 104.675 75.9487 111.771 74.5282L111.849 74.5132C110.892 75.381 109.254 76.5455 106.932 77.5914Z" fill="white"/>
</svg>
