<svg width="120" height="120" viewBox="0 0 120 120" fill="none" xmlns="http://www.w3.org/2000/svg">
<path d="M30 120C46.56 120 60 111.04 60 100V80H30C13.44 80 0 88.96 0 100C0 111.04 13.44 120 30 120Z" fill="#0ACF83"/>
<path d="M0 60C0 48.96 13.44 40 30 40H60V80H30C13.44 80 0 71.04 0 60Z" fill="#A259FF"/>
<path d="M0 20C0 8.96 13.44 0 30 0H60V40H30C13.44 40 0 31.04 0 20Z" fill="#F24E1E"/>
<path d="M60 0H90C106.56 0 120 8.96 120 20C120 31.04 106.56 40 90 40H60V0Z" fill="#FF7262"/>
<path d="M120 60C120 71.04 106.56 80 90 80C73.44 80 60 71.04 60 60C60 48.96 73.44 40 90 40C106.56 40 120 48.96 120 60Z" fill="#1ABCFE"/>
</svg>
