<svg width="59" height="110" viewBox="0 0 59 110" fill="none" xmlns="http://www.w3.org/2000/svg">
<path d="M37.8492 36.5409L50.4605 42.6279L37.8492 48.7149L25.2328 42.6255L37.8492 36.5409Z" fill="#C112FF"/>
<path d="M25.2328 42.6256V79.1619L37.8492 85.2512L37.8492 48.715L25.2328 42.6256Z" fill="#810CAA"/>
<path d="M25.2328 79.1619L0 91.3406L12.6164 97.43L37.8493 85.2512L25.2328 79.1619Z" fill="#C112FF"/>
<path d="M37.8492 0L58.8766 10.149L37.8492 20.2979L16.8219 10.149L37.8492 0Z" fill="#C112FF"/>
<path d="M37.8492 20.2979V40.5958L16.8219 30.4468V10.1489L37.8492 20.2979Z" fill="#810CAA"/>
<path d="M37.8492 20.2979L58.8765 10.1489V30.4468L37.8492 40.5958V20.2979Z" fill="#4C0664"/>
<path d="M12.6115 97.4323L7.62862e-05 91.3455L0 103.519L12.6164 109.609L12.6115 97.4323Z" fill="#810CAA"/>
<path d="M12.6165 109.609L50.4657 91.3406V42.6256L37.8493 48.715V85.2512L12.6165 97.43V109.609Z" fill="#4C0664"/>
</svg>
