<svg width="120" height="120" viewBox="0 0 120 120" fill="none" xmlns="http://www.w3.org/2000/svg">
<path d="M92.1338 112.405H79.0534C78.5813 112.405 78.1957 111.902 78.1957 111.286V107.13C78.1957 106.514 77.8098 106.01 77.338 106.01H59.035C58.5628 106.01 58.177 106.514 58.177 107.13V111.286C58.177 111.902 57.7911 112.405 57.3189 112.405H47.4854C47.0133 112.405 46.6274 112.909 46.6274 113.525V118.333C46.6274 118.948 47.0133 119.452 47.4854 119.452H92.1332C92.605 119.452 92.9909 118.948 92.9909 118.333V113.525C92.9915 112.91 92.6056 112.405 92.1338 112.405Z" fill="#CB37FF"/>
<path d="M114.11 0H20.7717C17.5242 0 14.8824 3.4488 14.8824 7.68849C14.8824 7.68849 14.8824 22.3485 14.8824 27.7417C14.8824 30.3929 14.7317 30.7678 16.0942 30.7678C16.8178 30.7678 17.6193 30.7678 18.4307 30.7678C19.5741 30.7678 19.3396 30.3929 19.3396 27.6923C19.3396 22.3113 19.3396 7.68849 19.3396 7.68849C19.3396 6.67518 19.9957 5.81871 20.7717 5.81871H114.11C114.886 5.81871 115.542 6.67518 115.542 7.68849V82.7478H48.9975C48.9975 82.7478 46.6522 82.7423 46.6522 86.7007C46.6522 89.0477 46.6522 93.7417 46.6522 96.0895C46.6522 100.042 49.0734 100.042 49.0734 100.042H114.11C117.357 100.042 120 96.594 120 92.3551V7.68849C120 3.44919 117.358 0 114.11 0ZM67.4412 93.4044C65.9748 93.4044 64.7866 91.8534 64.7866 89.9406C64.7866 88.0277 65.9748 86.4759 67.4412 86.4759C68.906 86.4759 70.0945 88.0277 70.0945 89.9406C70.0945 91.8534 68.906 93.4044 67.4412 93.4044Z" fill="#CB37FF"/>
<path d="M37.5669 37.6346H3.80103C1.70454 37.6346 0 39.8599 0 42.5964V115.038C0 117.774 1.70454 120 3.80103 120H37.5669C39.6621 120 41.3679 117.774 41.3679 115.038V42.5964C41.3679 39.8599 39.6621 37.6346 37.5669 37.6346ZM16.5188 42.6952H24.8488C25.2461 42.6952 25.5691 43.1155 25.5691 43.6358C25.5691 44.1549 25.2464 44.5756 24.8488 44.5756H16.5188C16.1208 44.5756 15.7988 44.1549 15.7988 43.6358C15.7988 43.1155 16.1208 42.6952 16.5188 42.6952ZM20.6334 116.515C19.5469 116.515 18.6662 115.365 18.6662 113.947C18.6662 112.529 19.5469 111.379 20.6334 111.379C21.7199 111.379 22.6007 112.529 22.6007 113.947C22.6007 115.365 21.7199 116.515 20.6334 116.515ZM38.102 108.968C38.102 109.63 37.6958 110.172 37.2 110.172H4.16875C3.6727 110.172 3.26684 109.63 3.26684 108.968V48.7719C3.26684 48.1098 3.673 47.5685 4.16875 47.5685H37.2C37.6961 47.5685 38.102 48.1102 38.102 48.7719V108.968Z" fill="white"/>
</svg>
