<svg width="120" height="120" viewBox="0 0 120 120" fill="none" xmlns="http://www.w3.org/2000/svg">
<path d="M119.983 111.157C119.974 110.761 119.965 110.362 119.956 109.962C119.946 109.562 119.937 109.161 119.927 108.758L119.919 108.457L119.915 108.306L119.914 108.268L119.912 107.93L119.911 107.914L119.908 107.851L119.883 107.35C119.848 106.682 119.814 106.011 119.78 105.34L119.754 104.832L119.714 104.173C119.687 103.735 119.66 103.297 119.633 102.86C119.605 102.423 119.576 101.988 119.548 101.553C119.534 101.337 119.519 101.12 119.505 100.904C119.488 100.704 119.47 100.504 119.453 100.305C119.309 98.7215 119.18 97.1655 118.997 95.6697C118.91 94.9212 118.83 94.1853 118.74 93.468C118.642 92.7524 118.546 92.0528 118.453 91.3714C118.276 90.0079 118.053 88.7345 117.866 87.5573C117.818 87.2636 117.771 86.9754 117.725 86.6944C117.674 86.4145 117.624 86.1417 117.575 85.8753C117.476 85.3439 117.383 84.8397 117.295 84.3663C117.205 83.8936 117.126 83.4498 117.043 83.043C116.958 82.6375 116.88 82.2648 116.81 81.9282C116.705 81.4338 116.616 81.0173 116.547 80.6882C116.444 80.2024 116.106 79.9292 115.784 80.0691L95.4957 88.8617C95.1866 88.9956 94.9949 89.4639 95.0538 89.9445C95.0758 90.1239 95.1009 90.3295 95.129 90.5594C95.1579 90.7909 95.19 91.0476 95.2248 91.3267C95.2578 91.6066 95.2837 91.9132 95.3169 92.2372C95.3495 92.5617 95.3841 92.9073 95.4206 93.2713C95.4384 93.4532 95.4595 93.6386 95.4761 93.8303C95.4905 94.0224 95.5051 94.2193 95.5203 94.4201C95.5767 95.2238 95.6611 96.0856 95.6988 97.0096C95.7237 97.4693 95.7494 97.9416 95.7757 98.4236C95.7954 98.9073 95.8053 99.4029 95.8222 99.9045C95.8661 100.906 95.8578 101.949 95.8704 103L95.8733 103.392L95.8642 103.739C95.8591 103.97 95.8538 104.201 95.8486 104.433C95.8445 104.665 95.8404 104.896 95.8362 105.129L95.8314 105.476L95.8175 105.976C95.7988 106.648 95.7797 107.321 95.7609 107.991L95.7469 108.493L95.745 108.555L95.7446 108.571C95.7449 108.646 95.7408 107.973 95.7421 108.264L95.7405 108.288L95.7344 108.388L95.7224 108.586C95.7067 108.849 95.6911 109.112 95.6755 109.374C95.6605 109.635 95.6455 109.895 95.6307 110.154C95.6105 110.412 95.5904 110.668 95.5702 110.923C95.5271 111.432 95.5006 111.936 95.4473 112.428C95.4005 112.919 95.3546 113.402 95.3096 113.875C95.2558 114.345 95.2032 114.804 95.1522 115.252C95.106 115.699 95.0441 116.13 94.989 116.548C94.9314 116.964 94.8855 117.368 94.8258 117.752C94.7676 118.136 94.7117 118.503 94.6586 118.853C94.6323 119.025 94.6068 119.194 94.582 119.357C94.5565 119.497 94.5319 119.633 94.5077 119.765C94.4936 119.846 94.4802 119.922 94.4664 120H119.28C119.612 120 119.889 119.603 119.902 119.098C119.902 119.095 119.902 119.092 119.902 119.089C119.923 118.386 119.944 117.664 119.966 116.927C119.975 116.19 119.984 115.437 119.994 114.671C120.008 113.906 119.993 113.129 119.992 112.343C119.989 111.95 119.986 111.555 119.983 111.157Z" fill="#CB37FF"/>
<path d="M113.531 71.5508C113.864 71.347 114.016 70.7607 113.862 70.2676C113.794 70.0484 113.715 69.7922 113.624 69.5023C113.539 69.2299 113.445 68.9283 113.342 68.6C113.21 68.1895 113.067 67.7457 112.913 67.2714C112.759 66.7991 112.595 66.2963 112.422 65.7665C112.334 65.4911 112.248 65.2638 112.157 65.0052C112.067 64.7524 111.975 64.4939 111.881 64.2297C111.692 63.7026 111.499 63.1515 111.291 62.5871C111.077 62.0288 110.855 61.4514 110.627 60.8578C110.513 60.5618 110.397 60.2615 110.28 59.958C110.158 59.6591 110.033 59.3566 109.908 59.0507C109.656 58.4416 109.398 57.819 109.136 57.1862C108.583 55.9472 108.033 54.6513 107.418 53.3901C107.268 53.0726 107.116 52.7539 106.964 52.4343L106.735 51.9552L106.497 51.4839C106.179 50.8571 105.859 50.2282 105.54 49.5991C105.215 48.9772 104.878 48.3685 104.548 47.7574C104.382 47.4539 104.22 47.146 104.05 46.8494C103.879 46.5537 103.709 46.2588 103.54 45.9651C103.37 45.6726 103.201 45.3806 103.033 45.0903C102.866 44.7989 102.697 44.5125 102.523 44.2355C102.179 43.6782 101.84 43.1278 101.505 42.5863C101.171 42.0465 100.824 41.5392 100.494 41.032C100.162 40.5276 99.8391 40.0321 99.5095 39.5721C99.1834 39.1079 98.8661 38.6565 98.5594 38.2197C98.254 37.7819 97.9421 37.3842 97.6516 36.9904C97.3587 36.6009 97.0779 36.2276 96.8109 35.8726C96.537 35.5293 96.2772 35.2039 96.0331 34.8981C95.7888 34.5934 95.5603 34.3083 95.349 34.0448C95.1373 33.7822 94.9348 33.5545 94.7563 33.3423C94.4964 33.039 94.2768 32.7827 94.1024 32.5791C93.8365 32.2686 93.4574 32.3349 93.2437 32.7281L82.3548 52.7729C82.1495 53.151 82.1671 53.7035 82.3961 54.0485C82.4872 54.1852 82.5923 54.3435 82.7105 54.5216C82.8238 54.6947 82.9537 54.878 83.0868 55.092C83.2199 55.3058 83.3637 55.5372 83.5174 55.7843C83.6714 56.0302 83.8351 56.2918 84.0075 56.5677C84.1739 56.8523 84.3488 57.1522 84.5313 57.4648C84.7116 57.7802 84.9086 58.0933 85.0961 58.4425C85.2852 58.7883 85.4806 59.1456 85.6817 59.5131C85.8865 59.8739 86.0819 60.2656 86.2842 60.6613C86.4844 61.0597 86.6984 61.4525 86.8995 61.8738C87.1007 62.2938 87.3052 62.7206 87.5123 63.1528C87.6179 63.3655 87.718 63.5873 87.8167 63.8125C87.9165 64.0361 88.0168 64.2605 88.1174 64.486C88.2182 64.7104 88.3197 64.9359 88.4211 65.1622C88.5224 65.3885 88.6153 65.6251 88.7131 65.8566C88.9054 66.3238 89.1047 66.7841 89.2937 67.2545C89.4779 67.7296 89.6622 68.2048 89.8456 68.678L89.9832 69.0311L90.1122 69.3916C90.1984 69.631 90.2841 69.87 90.3696 70.1076C90.7227 71.0468 91.0207 72.0151 91.3326 72.9249C91.4753 73.3913 91.6156 73.8497 91.7531 74.2988C91.8218 74.5224 91.8897 74.7437 91.9569 74.9621C92.0192 75.1846 92.0806 75.4041 92.1412 75.621C92.2631 76.0525 92.3816 76.4728 92.4964 76.8787C92.6024 77.2904 92.7047 77.688 92.803 78.0695C92.8523 78.2601 92.9002 78.4466 92.9472 78.6289C92.9917 78.8068 93.0468 78.9993 93.0763 79.1474C93.1464 79.4584 93.2128 79.7537 93.2752 80.031C93.3388 80.3065 93.3986 80.5641 93.4536 80.8025C93.526 81.1312 93.5925 81.4324 93.6525 81.7048C93.7193 82.0091 93.7781 82.278 93.8287 82.5086C93.9421 83.0259 94.3188 83.2896 94.6516 83.0864L113.531 71.5508Z" fill="#CB37FF"/>
<path d="M58.0809 35.7472C58.2458 35.7814 58.4282 35.8192 58.6271 35.8605C58.8246 35.9128 59.0383 35.9694 59.2666 36.0299C59.4945 36.0895 59.737 36.1527 59.9925 36.2195C60.2146 36.2756 60.4446 36.3571 60.6837 36.4332L67.5558 15.056C67.2151 14.9751 66.8772 14.8948 66.5462 14.8162C66.3193 14.7649 66.096 14.706 65.8735 14.6637C65.6511 14.6228 65.4313 14.5822 65.2144 14.5423C64.7813 14.4641 64.36 14.3878 63.9526 14.3143C63.5441 14.2611 63.1494 14.2096 62.7706 14.1602C62.3916 14.116 62.0302 14.0578 61.6843 14.0328C61.3389 14.0071 61.0113 13.9825 60.7034 13.9595C60.3959 13.9374 60.1081 13.9168 59.8422 13.8976C59.5761 13.8911 59.3315 13.8851 59.1106 13.8797C58.7999 13.874 58.5361 13.8692 58.3247 13.8653C57.9893 13.8592 57.7118 14.2578 57.6957 14.7672L57.0691 34.6643C57.0537 35.1545 57.2862 35.5814 57.6059 35.648C57.7421 35.6765 57.9009 35.7097 58.0809 35.7472Z" fill="#CB37FF"/>
<path d="M76.5506 46.7032C76.7353 46.9074 76.9103 47.101 77.0748 47.2833C77.2395 47.4627 77.3938 47.6306 77.5364 47.7861C77.5981 47.8506 77.7001 47.9682 77.7833 48.0623C77.8691 48.1597 77.9508 48.2525 78.0282 48.3404C78.1974 48.5324 78.3467 48.7018 78.4745 48.8468C78.762 49.173 79.17 49.0627 79.3669 48.6067L88.3391 27.8223C88.5362 27.3663 88.4406 26.7529 88.1293 26.4815C87.9909 26.3608 87.8293 26.2198 87.6464 26.0602C87.5624 25.9868 87.474 25.9098 87.381 25.8287C87.2798 25.7417 87.1741 25.6506 87.0638 25.5557C86.8086 25.3418 86.5324 25.1107 86.2375 24.8634C85.9424 24.6189 85.6283 24.3588 85.2973 24.0843C84.9819 23.844 84.6505 23.5913 84.3045 23.3276C83.9571 23.0698 83.6027 22.783 83.2226 22.5227C82.8443 22.2591 82.4532 21.9865 82.0513 21.7063C81.652 21.4197 81.2306 21.1594 80.8029 20.8862C80.3734 20.6188 79.9413 20.3264 79.49 20.0684C79.3756 20.0025 79.2596 19.9359 79.1444 19.8694L75.2738 45.4182C75.4878 45.6226 75.6894 45.8393 75.8879 46.0349C76.1191 46.2679 76.3402 46.4909 76.5506 46.7032Z" fill="#CB37FF"/>
<path d="M46.0337 35.6431C46.207 35.6083 46.3771 35.5653 46.547 35.538C46.7169 35.5119 46.8848 35.4859 47.0502 35.4602C47.3806 35.4081 47.7018 35.3574 48.0126 35.3082C48.3244 35.2765 48.6257 35.2458 48.9148 35.2162C49.059 35.2012 49.2003 35.1866 49.3383 35.1722C49.476 35.1582 49.6139 35.1403 49.7322 35.1402C49.9758 35.1304 50.2071 35.1213 50.4243 35.1127C50.6408 35.1023 50.8431 35.0925 51.0306 35.0835C51.2616 35.0812 51.4738 35.0791 51.6653 35.0771C51.8763 35.0754 52.0627 35.0739 52.2221 35.0725C52.5808 35.0697 52.8628 34.6077 52.8393 34.0632L52.0316 15.3201C52.008 14.7757 51.6889 14.3736 51.3331 14.442C51.1748 14.4724 50.99 14.5079 50.7807 14.5481C50.5867 14.5855 50.3718 14.6272 50.1379 14.6726C49.8615 14.735 49.5627 14.8022 49.2432 14.8743C48.9248 14.948 48.5857 15.0266 48.2284 15.1094C48.0455 15.1486 47.8771 15.2006 47.7004 15.2513C47.5242 15.3024 47.3439 15.3549 47.1599 15.4083C46.7924 15.5163 46.4098 15.6288 46.0134 15.7452C45.6202 15.8814 45.2135 16.0224 44.7955 16.1671C44.587 16.2399 44.3755 16.3139 44.1615 16.3888C43.9478 16.4648 43.7335 16.5578 43.5161 16.6433C43.0822 16.8191 42.6392 16.9987 42.1885 17.1812C41.7423 17.3858 41.2887 17.5936 40.8297 17.8042C40.6008 17.9119 40.3695 18.0135 40.1397 18.1286C39.9108 18.2475 39.6802 18.3668 39.4491 18.4869C39.2183 18.6071 38.9866 18.7278 38.7544 18.849C38.5219 18.9692 38.2891 19.0901 38.0595 19.2278C37.5991 19.495 37.1369 19.7634 36.6747 20.0317C36.2145 20.3057 35.7619 20.6092 35.3083 20.8964C35.0822 21.0429 34.8555 21.1843 34.632 21.3347C34.4101 21.4905 34.1889 21.6458 33.9685 21.8006C33.7486 21.9554 33.5294 22.1099 33.3115 22.2634C33.0937 22.4167 32.8766 22.5676 32.6657 22.7342C32.2423 23.0592 31.8241 23.3804 31.4128 23.6962C31.0014 24.0099 30.6093 24.3561 30.2198 24.6748C29.8322 24.9994 29.451 25.3091 29.0913 25.6428C28.7297 25.969 28.3779 26.2865 28.0376 26.5935C27.6963 26.8962 27.3798 27.2232 27.0695 27.5186C26.7615 27.8189 26.4663 28.1068 26.1855 28.3806C25.9107 28.6674 25.65 28.9394 25.4051 29.1951C25.1608 29.4509 24.9322 29.6903 24.7207 29.9118C24.5095 30.1333 24.3227 30.3528 24.1505 30.5426C23.9172 30.8047 23.718 31.0283 23.5568 31.2092C23.2877 31.5114 23.2245 32.0821 23.4127 32.503L28.5304 43.9456C28.7125 44.3528 29.0686 44.4806 29.3507 44.2384C29.4806 44.1269 29.6342 43.995 29.8094 43.8447C29.9622 43.7162 30.1274 43.5645 30.3139 43.4168C30.5004 43.2688 30.702 43.1094 30.9174 42.9388C31.1321 42.768 31.3607 42.5863 31.6016 42.3948C31.8467 42.2161 32.1042 42.0283 32.373 41.8323C32.6431 41.641 32.9171 41.4218 33.2125 41.2307C33.5057 41.0349 33.8088 40.8326 34.1206 40.6246C34.4292 40.4085 34.7561 40.2196 35.0868 40.0179C35.4192 39.822 35.7522 39.6003 36.101 39.413C36.4482 39.2226 36.8014 39.0292 37.1587 38.8333C37.336 38.7309 37.5184 38.6442 37.7011 38.5555C37.8835 38.4662 38.0669 38.3765 38.251 38.2864C38.4346 38.1961 38.6191 38.1054 38.804 38.0143C38.9899 37.9285 39.1785 37.8516 39.3658 37.7694C39.7421 37.6111 40.1159 37.4355 40.4949 37.2884C40.8741 37.1457 41.2533 37.0029 41.6309 36.861C41.8184 36.7851 42.0086 36.7257 42.198 36.6664C42.3869 36.6059 42.5754 36.5456 42.7632 36.4854C42.9504 36.4249 43.137 36.3648 43.3227 36.3049C43.5087 36.2484 43.6958 36.2048 43.8804 36.1542C44.2495 36.0569 44.614 35.9604 44.9727 35.8659C45.3327 35.7904 45.6868 35.7159 46.0337 35.6431Z" fill="#CB37FF"/>
<path d="M11.1379 50.4374C11.0037 50.7259 10.8691 51.0158 10.7338 51.3068C10.5989 51.5977 10.4635 51.8897 10.3276 52.1826C10.1923 52.4759 10.0657 52.7802 9.93408 53.0795C9.67463 53.6821 9.40911 54.2801 9.15497 54.8895C8.90676 55.504 8.65855 56.1185 8.41135 56.7307L8.22693 57.1891L8.05185 57.6549C7.93552 57.9646 7.81956 58.2737 7.70398 58.5812C7.23156 59.8017 6.82116 61.0491 6.40407 62.234C6.20992 62.8382 6.01893 63.4323 5.83198 64.014C5.73927 64.3045 5.64744 64.5922 5.55687 64.8761C5.47161 65.1639 5.38748 65.4484 5.30436 65.7293C5.13889 66.2898 4.97797 66.8354 4.82222 67.3629C4.67696 67.8971 4.53649 68.4131 4.40171 68.9083C4.26959 69.4051 4.13607 69.8751 4.02226 70.3314C3.90997 70.788 3.80336 71.2214 3.70306 71.6284C3.60327 72.0351 3.50993 72.4157 3.42365 72.7676C3.34395 73.123 3.27081 73.4493 3.20462 73.7442C3.11873 74.1319 3.04496 74.4646 2.98471 74.737C2.87797 75.2184 3.04029 75.7407 3.35229 75.9226L8.11564 78.6998C8.4188 78.8765 8.76023 78.6702 8.90031 78.2247C8.96979 78.0042 9.05278 77.7401 9.14814 77.4367C9.22722 77.1868 9.31463 76.91 9.41 76.6086C9.5113 76.3114 9.62082 75.9906 9.73791 75.6473C9.85463 75.3052 9.97867 74.9404 10.1095 74.5562C10.2414 74.1732 10.3932 73.7803 10.5439 73.3654C10.6965 72.9528 10.8556 72.5227 11.0201 72.0774C11.1936 71.6407 11.3728 71.1889 11.5572 70.7244C11.6491 70.4926 11.7422 70.2576 11.8364 70.0198C11.9355 69.7864 12.036 69.5505 12.1374 69.3113C12.3403 68.8349 12.5475 68.3485 12.7584 67.8533C13.2063 66.889 13.6443 65.8733 14.1394 64.8938C14.2603 64.6462 14.3816 64.3978 14.5034 64.1487L14.6859 63.7746L14.8772 63.4089C15.1318 62.9211 15.3875 62.4319 15.6432 61.9426C15.9035 61.4593 16.1737 60.9884 16.4363 60.5136C16.5694 60.2779 16.6973 60.0374 16.8336 59.8082C16.97 59.5794 17.1059 59.3512 17.2413 59.1239C17.3765 58.8969 17.511 58.6708 17.6449 58.4456C17.7775 58.2193 17.9114 57.9971 18.0505 57.784C18.3241 57.3532 18.5944 56.9275 18.8603 56.5085C19.1257 56.0903 19.4027 55.7023 19.6642 55.31C19.9277 54.9206 20.1826 54.5364 20.445 54.1843C20.7032 53.827 20.9543 53.4795 21.1974 53.1431C21.4384 52.8048 21.6867 52.5028 21.9161 52.1997C22.147 51.9006 22.3683 51.614 22.5788 51.3414C22.7854 51.0926 22.9815 50.8567 23.1656 50.6347C23.3488 50.413 23.5202 50.2053 23.6787 50.0132C23.7515 49.9218 23.85 49.8123 23.9332 49.7161C24.0186 49.6179 24.1001 49.5245 24.1774 49.436C24.3458 49.2425 24.4945 49.0719 24.6218 48.9259C24.9082 48.5973 24.9525 47.9706 24.7196 47.5557L19.2962 37.8933C19.0633 37.4784 18.6493 37.4467 18.391 37.8251C18.2762 37.9934 18.1419 38.1899 17.9901 38.4125C17.9204 38.5146 17.8469 38.6223 17.7698 38.7351C17.6914 38.8509 17.6167 38.9564 17.5195 39.1076C17.3335 39.3928 17.1325 39.7015 16.9177 40.0312C16.704 40.361 16.4765 40.712 16.2366 41.082C16.0136 41.4493 15.7792 41.8354 15.5347 42.2382C15.2931 42.6441 15.0327 43.0531 14.7807 43.5015C14.5277 43.9475 14.2662 44.4087 13.9973 44.8826C13.7251 45.351 13.4617 45.8541 13.1907 46.3645C12.9218 46.8776 12.6384 47.3895 12.3679 47.932C12.0982 48.4745 11.8241 49.026 11.5468 49.5847C11.4058 49.8615 11.271 50.1473 11.1379 50.4374Z" fill="#CB37FF"/>
<path d="M1.28273 84.3145C1.25103 84.5519 1.21389 84.8301 1.17183 85.1444C1.1333 85.4329 1.09061 85.7526 1.04412 86.1005C0.998524 86.4562 0.953935 86.8763 0.904166 87.3051C0.855156 87.7381 0.803114 88.1988 0.748293 88.6844C0.721767 88.9264 0.691451 89.1765 0.666314 89.4288C0.643956 89.6795 0.62122 89.9357 0.597851 90.1972C0.508925 91.2447 0.391831 92.3717 0.324378 93.5758C0.28522 94.1757 0.245052 94.7918 0.204 95.4217C0.170147 96.0524 0.147536 96.6982 0.118358 97.3529C0.0501472 98.6613 0.037642 100.018 0.00922103 101.391L0 101.907L0.0016421 102.425C0.00290526 102.771 0.00416841 103.118 0.00543157 103.465C0.00682104 103.812 0.00821051 104.16 0.00947366 104.508L0.011621 105.03L0.0247578 105.552C0.0433262 106.247 0.0618946 106.942 0.080463 107.634L0.094484 108.152L0.0987787 108.32L0.104842 108.445L0.116968 108.694C0.133137 109.027 0.149179 109.359 0.165221 109.689C0.181263 110.02 0.197305 110.349 0.213094 110.676C0.234947 111.018 0.256547 111.358 0.278273 111.696C0.300126 112.034 0.321852 112.369 0.343452 112.703C0.354315 112.869 0.365178 113.035 0.376041 113.2C0.389557 113.363 0.403073 113.525 0.416462 113.686C0.470273 114.329 0.523199 114.962 0.574988 115.582C0.637514 116.199 0.698651 116.803 0.758019 117.39C0.813598 117.977 0.885219 118.545 0.951029 119.095C0.956461 119.139 0.961892 119.182 0.967198 119.226C1.02214 119.675 1.27907 120 1.57932 120H3.25818C3.61667 120 3.90113 119.541 3.88003 118.997C3.87435 118.852 3.86854 118.705 3.8621 118.557C3.84113 118.028 3.81586 117.482 3.80778 116.918C3.79565 116.356 3.78328 115.778 3.77052 115.187C3.76812 114.597 3.76572 113.994 3.76332 113.381C3.76269 113.228 3.76205 113.074 3.76142 112.92C3.76357 112.768 3.76584 112.615 3.76812 112.462C3.77254 112.156 3.77696 111.848 3.78151 111.537C3.78593 111.228 3.79048 110.916 3.79502 110.603C3.80513 110.275 3.81511 109.945 3.82534 109.614C3.83544 109.283 3.84568 108.951 3.85578 108.618L3.86349 108.367L3.86727 108.242L3.86778 108.226C3.86778 108.186 3.86829 108.263 3.86854 108.25L3.87005 108.22L3.87321 108.159L3.89873 107.675C3.93258 107.028 3.96656 106.38 4.00066 105.731L4.02669 105.246L4.06344 104.761C4.08795 104.439 4.11233 104.117 4.13671 103.796C4.16096 103.474 4.18521 103.154 4.20934 102.835L4.24534 102.357L4.29195 101.882C4.41978 100.62 4.52841 99.3785 4.68757 98.1898C4.76222 97.5943 4.82904 97.0084 4.90571 96.4381C4.98921 95.87 5.07081 95.3143 5.15026 94.7734C5.29729 93.6897 5.4879 92.6823 5.64302 91.7486C5.68281 91.5155 5.72171 91.2871 5.75973 91.0643C5.7999 90.8447 5.84323 90.6369 5.88314 90.4309C5.96361 90.0212 6.04003 89.6326 6.11177 89.267C6.18516 88.8986 6.24542 88.5691 6.31565 88.2385C6.38929 87.9012 6.45674 87.5921 6.51788 87.3126C6.58432 87.0079 6.64306 86.739 6.69333 86.5085C6.80638 85.9911 6.60895 85.4366 6.26234 85.2961L2.05364 83.5893C1.7069 83.4485 1.35423 83.7799 1.28273 84.3145Z" fill="#CB37FF"/>
<path d="M48.9241 117.49C50.2934 118.508 51.7439 118.99 53.1719 118.99C56.7565 118.99 60.2013 115.953 61.8817 110.725C62.2053 109.719 62.4558 108.608 62.6188 107.562L72.4179 42.8791L76.1498 18.2456L78.4618 2.9858C78.7308 1.20984 77.8019 0 76.8699 0C76.3244 0 75.7777 0.414744 75.4695 1.37313L70.7648 16.0078L63.8246 37.5971L44.4762 97.7839C42.1263 105.093 44.1178 113.916 48.9241 117.49ZM53.5311 96.6595C56.1533 96.6595 58.2791 99.8922 58.2791 103.88C58.2791 107.868 56.1533 111.101 53.5311 111.101C50.9089 111.101 48.7832 107.868 48.7832 103.88C48.7832 99.8918 50.9089 96.6595 53.5311 96.6595Z" fill="white"/>
</svg>
