<svg width="120" height="120" viewBox="0 0 120 120" fill="none" xmlns="http://www.w3.org/2000/svg">
<path d="M60.2484 120C91.9617 120 117.67 94.2914 117.67 62.5781C117.67 30.8649 91.9617 5.15625 60.2484 5.15625C28.5352 5.15625 2.82657 30.8649 2.82657 62.5781C2.82657 94.2914 28.5352 120 60.2484 120Z" fill="white"/>
<path d="M60.2016 91.0547H38.0883V100.567H60.2016V91.0547Z" fill="#111517"/>
<path d="M70.542 105.305C70.542 105.949 70.0146 106.476 69.3701 106.476H28.9186C28.2741 106.476 27.7467 105.949 27.7467 105.305V101.506C27.7467 100.861 27.7011 100.334 28.3457 100.334C44.143 100.334 53 100.334 68.7974 100.334C69.4419 100.334 70.5422 100.861 70.5422 101.506L70.542 105.305Z" fill="#111517"/>
<path d="M32.3972 105.305V101.506C32.3972 100.861 32.9245 100.334 33.5691 100.334H28.9186C28.2741 100.334 27.7467 100.861 27.7467 101.506V105.305C27.7467 105.949 28.2741 106.476 28.9186 106.476H33.5691C32.9245 106.476 32.3972 105.949 32.3972 105.305Z" fill="#111517"/>
<path d="M82.2485 77.5519H2.32968V88.9465C2.32968 90.2356 3.38437 91.2902 4.67343 91.2902H43.4609H82.2483L82.2485 77.5519Z" fill="#810CAA"/>
<path d="M6.98039 88.9465V77.5519H2.32968V88.9465C2.32968 90.2356 3.38437 91.2902 4.67343 91.2902H9.3239C8.03507 91.2902 6.98039 90.2356 6.98039 88.9465Z" fill="#111517"/>
<path d="M93.7083 24.67H84.3389V50.2767C83.1248 50.2814 82.1384 51.2732 82.1384 52.4925V73.2846H13.4548V24.67H4.58038C3.34265 24.67 2.32968 25.6825 2.32968 26.9205V77.7862H82.2483V52.4925C82.2483 51.2704 83.2425 50.2762 84.4645 50.2762H95.9585V26.9203C95.9587 25.6825 94.946 24.67 93.7083 24.67Z" fill="#CB37FF"/>
<path d="M13.4548 29.1713H8.0032C7.35867 29.1713 6.83133 29.6986 6.83133 30.3431V72.1127C6.83133 72.7573 7.35867 73.2846 8.0032 73.2846H13.455L13.4548 29.1713Z" fill="#111517"/>
<path d="M90.2857 29.1713H84.3391V50.2826C84.3811 50.2802 84.4223 50.2763 84.4648 50.2763H91.4576V30.3431C91.4576 29.6986 90.9303 29.1713 90.2857 29.1713Z" fill="#111517"/>
<path d="M11.4818 72.1127V30.3431C11.4818 29.6986 12.0091 29.1713 12.6537 29.1713H8.0032C7.35867 29.1713 6.83133 29.6986 6.83133 30.3431V72.1127C6.83133 72.7573 7.35867 73.2846 8.0032 73.2846H12.6537C12.0091 73.2846 11.4818 72.7573 11.4818 72.1127Z" fill="#C112FF"/>
<path d="M49.1438 87.4601C50.7169 87.4601 51.9921 86.1849 51.9921 84.6118C51.9921 83.0387 50.7169 81.7634 49.1438 81.7634C47.5707 81.7634 46.2954 83.0387 46.2954 84.6118C46.2954 86.1849 47.5707 87.4601 49.1438 87.4601Z" fill="white"/>
<path d="M39.1868 15.3546C39.1868 14.7811 39.6565 14.3114 40.2305 14.3114H67.1384V1.23422C67.1384 0.555234 66.5831 0 65.9044 0H14.5716C13.8928 0 13.3376 0.555234 13.3376 1.23422V73.2846H39.1868V15.3546Z" fill="#C3DDF4"/>
<path d="M19.222 0H14.5716C13.8928 0 13.3376 0.555234 13.3376 1.23422V73.2846H17.9883V1.23422C17.9883 0.555234 18.5435 0 19.222 0Z" fill="#AEC1ED"/>
<path d="M82.2485 52.4925C82.2485 51.2733 83.2383 50.2812 84.4563 50.2767V15.1202C84.4563 14.5467 83.9866 14.077 83.4129 14.077H39.9961C39.4221 14.077 38.9524 14.5467 38.9524 15.1202V73.2846H82.2483V52.4925H82.2485V52.4925Z" fill="white"/>
<path d="M44.6468 14.077H39.9961C39.4221 14.077 38.9524 14.5467 38.9524 15.1202V73.2846H43.6029V15.1202C43.6031 14.5465 44.0728 14.077 44.6468 14.077Z" fill="#D9EAFC"/>
<path d="M48.9415 37.6029C48.4348 37.6029 47.9527 37.3843 47.6189 37.0029L44.8066 33.7904C44.167 33.0598 44.2409 31.9493 44.9714 31.3097C45.7015 30.6704 46.8122 30.7442 47.4518 31.4745L48.9415 33.1763L51.3101 30.4704C51.9495 29.7399 53.0599 29.6661 53.7905 30.3057C54.521 30.9453 54.5948 32.0558 53.9552 32.7863L50.2641 37.0029C49.9305 37.384 49.4484 37.6029 48.9415 37.6029Z" fill="#0F9390"/>
<path d="M77.2798 33.1853H58.4531C57.4823 33.1853 56.6953 32.3985 56.6953 31.4275C56.6953 30.4565 57.4823 29.6697 58.4531 29.6697H77.2798C78.2505 29.6697 79.0376 30.4565 79.0376 31.4275C79.0376 32.3983 78.2505 33.1853 77.2798 33.1853Z" fill="#52BBEF"/>
<path d="M77.2798 38.0045H58.4531C57.4823 38.0045 56.6953 37.2177 56.6953 36.2467C56.6953 35.2757 57.4823 34.4889 58.4531 34.4889H77.2798C78.2505 34.4889 79.0376 35.2757 79.0376 36.2467C79.0376 37.2177 78.2505 38.0045 77.2798 38.0045Z" fill="#52BBEF"/>
<path d="M48.9415 52.0603C48.4348 52.0603 47.9527 51.8416 47.6189 51.4605L44.8066 48.2482C44.167 47.5176 44.2409 46.4072 44.9714 45.7678C45.702 45.1282 46.8124 45.2023 47.4518 45.9323L48.9415 47.6341L51.3101 44.9283C51.9495 44.198 53.0599 44.1241 53.7905 44.7635C54.521 45.4031 54.5948 46.5136 53.9552 47.2441L50.2641 51.4605C49.9305 51.8416 49.4484 52.0603 48.9415 52.0603Z" fill="#0F9390"/>
<path d="M77.2798 47.6428H58.4531C57.4823 47.6428 56.6953 46.856 56.6953 45.885C56.6953 44.914 57.4823 44.1272 58.4531 44.1272H77.2798C78.2505 44.1272 79.0376 44.914 79.0376 45.885C79.0376 46.856 78.2505 47.6428 77.2798 47.6428Z" fill="#52BBEF"/>
<path d="M77.2798 52.4623H58.4531C57.4823 52.4623 56.6953 51.6755 56.6953 50.7045C56.6953 49.7335 57.4823 48.9467 58.4531 48.9467H77.2798C78.2505 48.9467 79.0376 49.7335 79.0376 50.7045C79.0376 51.6752 78.2505 52.4623 77.2798 52.4623Z" fill="#52BBEF"/>
<path d="M48.9415 66.5179C48.4348 66.5179 47.9527 66.299 47.6189 65.9179L44.8066 62.7053C44.167 61.9748 44.2409 60.8643 44.9714 60.2247C45.7015 59.5853 46.8122 59.6594 47.4518 60.3895L48.9415 62.0913L51.3101 59.3856C51.9495 58.6551 53.0599 58.5815 53.7905 59.2209C54.521 59.8605 54.5948 60.9709 53.9552 61.7015L50.2641 65.9179C49.9305 66.299 49.4484 66.5179 48.9415 66.5179Z" fill="#0F9390"/>
<path d="M77.2806 62.1005H58.4539C57.4831 62.1005 56.6961 61.3137 56.6961 60.3427C56.6961 59.3716 57.4831 58.5848 58.4539 58.5848H77.2806C78.2513 58.5848 79.0384 59.3716 79.0384 60.3427C79.0384 61.3134 78.2513 62.1005 77.2806 62.1005Z" fill="#52BBEF"/>
<path d="M70.3594 66.9197H58.4529C57.4821 66.9197 56.6951 66.1329 56.6951 65.1619C56.6951 64.1908 57.4821 63.4041 58.4529 63.4041H70.3594C71.3302 63.4041 72.1172 64.1908 72.1172 65.1619C72.1172 66.1329 71.3302 66.9197 70.3594 66.9197Z" fill="#52BBEF"/>
<path d="M33.8773 18.2484H20.1614C19.1906 18.2484 18.4036 17.4616 18.4036 16.4906C18.4036 15.5196 19.1906 14.7328 20.1614 14.7328H33.8775C34.8483 14.7328 35.6353 15.5196 35.6353 16.4906C35.6351 17.4616 34.848 18.2484 33.8773 18.2484Z" fill="#445EA0"/>
<path d="M33.8773 23.1334H20.1614C19.1906 23.1334 18.4036 22.3466 18.4036 21.3756C18.4036 20.4046 19.1906 19.6178 20.1614 19.6178H33.8775C34.8483 19.6178 35.6353 20.4046 35.6353 21.3756C35.6353 22.3466 34.848 23.1334 33.8773 23.1334Z" fill="#445EA0"/>
<path d="M33.8773 28.0186H20.1614C19.1906 28.0186 18.4036 27.2318 18.4036 26.2607C18.4036 25.2897 19.1906 24.5029 20.1614 24.5029H33.8775C34.8483 24.5029 35.6353 25.2897 35.6353 26.2607C35.6353 27.2318 34.848 28.0186 33.8773 28.0186Z" fill="#445EA0"/>
<path d="M33.8773 37.2745H20.1614C19.1906 37.2745 18.4036 36.4877 18.4036 35.5167C18.4036 34.5457 19.1906 33.7589 20.1614 33.7589H33.8775C34.8483 33.7589 35.6353 34.5457 35.6353 35.5167C35.6351 36.4877 34.848 37.2745 33.8773 37.2745Z" fill="#445EA0"/>
<path d="M33.8773 42.1598H20.1614C19.1906 42.1598 18.4036 41.373 18.4036 40.402C18.4036 39.431 19.1906 38.6442 20.1614 38.6442H33.8775C34.8483 38.6442 35.6353 39.431 35.6353 40.402C35.6351 41.3728 34.848 42.1598 33.8773 42.1598Z" fill="#445EA0"/>
<path d="M33.8773 47.0452H20.1614C19.1906 47.0452 18.4036 46.2584 18.4036 45.2874C18.4036 44.3163 19.1906 43.5295 20.1614 43.5295H33.8775C34.8483 43.5295 35.6353 44.3163 35.6353 45.2874C35.6351 46.2581 34.848 47.0452 33.8773 47.0452Z" fill="#445EA0"/>
<path d="M33.8773 56.301H20.1614C19.1906 56.301 18.4036 55.5142 18.4036 54.5432C18.4036 53.5722 19.1906 52.7854 20.1614 52.7854H33.8775C34.8483 52.7854 35.6353 53.5722 35.6353 54.5432C35.6351 55.514 34.848 56.301 33.8773 56.301Z" fill="#445EA0"/>
<path d="M33.8773 61.1859H20.1614C19.1906 61.1859 18.4036 60.3991 18.4036 59.4281C18.4036 58.4571 19.1906 57.6703 20.1614 57.6703H33.8775C34.8483 57.6703 35.6353 58.4571 35.6353 59.4281C35.6351 60.3991 34.848 61.1859 33.8773 61.1859Z" fill="#445EA0"/>
<path d="M33.8773 66.071H20.1614C19.1906 66.071 18.4036 65.2842 18.4036 64.3132C18.4036 63.3422 19.1906 62.5554 20.1614 62.5554H33.8775C34.8483 62.5554 35.6353 63.3422 35.6353 64.3132C35.6351 65.2842 34.848 66.071 33.8773 66.071Z" fill="#445EA0"/>
<path d="M71.1792 22.8513H52.2293C51.2585 22.8513 50.4715 22.0645 50.4715 21.0935C50.4715 20.1225 51.2585 19.3357 52.2293 19.3357H71.1792C72.15 19.3357 72.937 20.1225 72.937 21.0935C72.937 22.0645 72.15 22.8513 71.1792 22.8513Z" fill="#445EA0"/>
<path d="M111.297 104.026C111.297 105.374 110.194 106.477 108.847 106.477H84.4648C83.1169 106.477 82.0142 105.374 82.0142 104.026V52.4925C82.0142 51.1446 83.1169 50.0419 84.4648 50.0419H108.847C110.194 50.0419 111.297 51.1446 111.297 52.4925V104.026Z" fill="#810CAA"/>
<path d="M91.7543 96.832V99.5944C91.7543 100.239 92.2816 100.766 92.9262 100.766H100.385C101.029 100.766 101.557 100.239 101.557 99.5944V96.832H91.7543Z" fill="white"/>
<path d="M111.298 57.9821H82.0148V77.5242V97.0664H111.298V57.9821Z" fill="#CB37FF"/>
<path d="M86.6653 57.9821H82.0148V97.0664H86.6653V57.9821Z" fill="#CB37FF"/>
<path d="M100.822 55.7178H92.4895C91.5188 55.7178 90.7317 54.931 90.7317 53.96C90.7317 52.9889 91.5188 52.2021 92.4895 52.2021H100.822C101.792 52.2021 102.579 52.9889 102.579 53.96C102.579 54.931 101.792 55.7178 100.822 55.7178Z" fill="white"/>
<path d="M107.58 70.9225C107.58 71.5671 107.053 72.0944 106.408 72.0944H86.9417C86.2971 72.0944 85.7698 71.5671 85.7698 70.9225V62.7292C85.7698 62.0847 86.2971 61.5574 86.9417 61.5574H106.408C107.053 61.5574 107.58 62.0847 107.58 62.7292V70.9225Z" fill="white"/>
<path d="M101.91 77.8912H87.5686C86.5978 77.8912 85.8108 77.1044 85.8108 76.1334C85.8108 75.1624 86.5978 74.3756 87.5686 74.3756H101.91C102.88 74.3756 103.667 75.1624 103.667 76.1334C103.667 77.1042 102.88 77.8912 101.91 77.8912Z" fill="white"/>
<path d="M101.91 83.0743H87.5686C86.5978 83.0743 85.8108 82.2875 85.8108 81.3165C85.8108 80.3455 86.5978 79.5587 87.5686 79.5587H101.91C102.88 79.5587 103.667 80.3455 103.667 81.3165C103.667 82.2875 102.88 83.0743 101.91 83.0743Z" fill="white"/>
<path d="M101.91 88.2573H87.5686C86.5978 88.2573 85.8108 87.4705 85.8108 86.4995C85.8108 85.5287 86.5978 84.7417 87.5686 84.7417H101.91C102.88 84.7417 103.667 85.5287 103.667 86.4995C103.667 87.4705 102.88 88.2573 101.91 88.2573Z" fill="white"/>
<path d="M90.4205 70.9225V62.7292C90.4205 62.0847 90.9478 61.5574 91.5923 61.5574H86.9419C86.2973 61.5574 85.77 62.0847 85.77 62.7292V70.9225C85.77 71.5671 86.2973 72.0944 86.9419 72.0944H91.5923C90.9478 72.0944 90.4205 71.5671 90.4205 70.9225Z" fill="#D9EAFC"/>
<path d="M90.4613 76.1334C90.4613 75.1624 91.2483 74.3756 92.2191 74.3756H87.5686C86.5978 74.3756 85.8108 75.1624 85.8108 76.1334C85.8108 77.1044 86.5978 77.8912 87.5686 77.8912H92.2191C91.2483 77.8912 90.4613 77.1042 90.4613 76.1334Z" fill="#D9EAFC"/>
<path d="M90.4613 81.3165C90.4613 80.3455 91.2483 79.5587 92.2191 79.5587H87.5686C86.5978 79.5587 85.8108 80.3455 85.8108 81.3165C85.8108 82.2875 86.5978 83.0743 87.5686 83.0743H92.2191C91.2483 83.0743 90.4613 82.2875 90.4613 81.3165Z" fill="#D9EAFC"/>
<path d="M90.4613 86.4995C90.4613 85.5287 91.2483 84.7417 92.2191 84.7417H87.5686C86.5978 84.7417 85.8108 85.5287 85.8108 86.4995C85.8108 87.4705 86.5978 88.2573 87.5686 88.2573H92.2191C91.2483 88.2573 90.4613 87.4705 90.4613 86.4995Z" fill="#D9EAFC"/>
<path d="M63.0609 9.60938C63.0609 10.2539 62.5336 10.7812 61.8891 10.7812H19.4672C18.8227 10.7812 18.2953 10.2539 18.2953 9.60938V6.32812C18.2953 5.68359 18.8227 5.15625 19.4672 5.15625H61.8891C62.5336 5.15625 63.0609 5.68359 63.0609 6.32812V9.60938Z" fill="white"/>
</svg>
